<svg xmlns="http://www.w3.org/2000/svg" viewBox="0 0 64 64">
  <rect width="64" height="64" rx="14" fill="#14213B"/>
  <path d="M32 10c-9 6-13 12-13 22v18h6V34c0-8 3-13 7-17 4 4 7 9 7 17v16h6V32c0-10-4-16-13-22Z" fill="none" stroke="#C9A227" stroke-width="2.4"/>
  <circle cx="32" cy="30" r="7.5" fill="none" stroke="#C9A227" stroke-width="1.6"/>
  <g stroke="#C9A227" stroke-width="1.1">
    <line x1="32" y1="22.5" x2="32" y2="37.5"/>
    <line x1="24.5" y1="30" x2="39.5" y2="30"/>
    <line x1="27.2" y1="24.7" x2="36.8" y2="35.3"/>
    <line x1="36.8" y1="24.7" x2="27.2" y2="35.3"/>
  </g>
  <circle cx="32" cy="30" r="2.1" fill="#C9A227"/>
  <rect x="19" y="50" width="26" height="4" rx="1.5" fill="#C9A227"/>
</svg>
