<?xml version="1.0" standalone="no"?>
<!DOCTYPE svg PUBLIC "-//W3C//DTD SVG 20010904//EN"
 "http://www.w3.org/TR/2001/REC-SVG-20010904/DTD/svg10.dtd">
<svg version="1.0" xmlns="http://www.w3.org/2000/svg"
 width="319.000000pt" height="217.000000pt" viewBox="0 0 319.000000 217.000000"
 preserveAspectRatio="xMidYMid meet">

<g transform="translate(0.000000,217.000000) scale(0.100000,-0.100000)"
fill="#000000" stroke="none">
<path d="M1647 2159 c-37 -6 -80 -37 -98 -72 -33 -60 -169 -540 -194 -680 -6
-37 -8 -38 -33 -30 -71 22 -460 -5 -619 -44 -20 -4 -23 -1 -23 24 0 39 30 155
79 308 55 169 65 191 98 207 24 11 28 19 31 63 3 44 -1 54 -25 76 -39 37 -84
49 -178 49 l-82 0 -56 -142 c-91 -235 -141 -395 -184 -592 l-8 -40 -91 -17
c-50 -9 -127 -27 -172 -39 -95 -26 -103 -40 -48 -88 51 -44 96 -56 193 -49 93
7 85 14 69 -63 -23 -113 -66 -464 -66 -543 l0 -58 43 -18 c63 -27 153 -44 196
-36 76 13 71 3 71 143 0 132 21 397 40 492 9 48 39 150 43 150 1 0 88 11 192
25 390 51 465 59 477 47 9 -9 6 -43 -11 -134 -32 -169 -51 -296 -51 -340 0
-35 -2 -37 -37 -40 -32 -3 -38 -7 -41 -29 -4 -38 52 -106 117 -142 47 -27 67
-32 145 -35 113 -6 116 -3 117 127 1 135 6 143 51 82 69 -92 219 -174 392
-214 131 -30 365 -29 489 1 312 77 462 205 475 407 13 205 -122 411 -381 585
-84 56 -288 157 -374 185 -63 20 -71 29 -41 49 54 34 367 123 605 171 108 22
153 24 153 8 0 -3 -25 -35 -55 -70 -65 -76 -70 -98 -22 -89 32 6 259 115 287
138 62 51 77 118 36 157 -46 44 -116 61 -246 61 -286 0 -610 -72 -973 -217
-76 -30 -140 -53 -142 -51 -3 2 13 62 35 133 22 70 37 132 34 137 -18 28 -154
58 -217 47z m139 -494 c16 -8 46 -15 66 -15 132 0 341 -85 541 -218 149 -100
217 -186 252 -319 58 -222 -60 -385 -335 -463 -105 -30 -287 -38 -361 -17
-140 41 -205 148 -153 249 21 41 98 123 140 149 42 26 43 39 2 64 -51 31 -197
28 -258 -4 -25 -13 -53 -30 -63 -39 -9 -8 -19 -13 -22 -10 -7 6 43 232 99 450
25 98 46 180 46 183 0 9 17 5 46 -10z"/>
<path d="M818 371 c-83 -27 -129 -90 -130 -180 0 -114 76 -189 183 -179 58 6
60 7 53 34 -4 16 -12 19 -43 16 -120 -12 -177 141 -89 236 17 17 32 22 74 22
45 0 54 3 59 21 4 11 5 22 3 24 -9 10 -86 13 -110 6z"/>
<path d="M1637 366 c-78 -29 -117 -88 -117 -178 0 -116 73 -186 182 -176 56 6
62 10 54 35 -5 15 -14 18 -45 15 -45 -4 -95 18 -112 51 -7 12 -12 50 -12 85 0
55 4 67 28 92 23 24 37 30 84 32 49 3 56 6 59 26 2 14 -2 22 -11 22 -8 0 -27
2 -43 5 -16 3 -46 -1 -67 -9z"/>
<path d="M2393 323 c-7 -2 -13 -14 -13 -25 0 -11 -8 -22 -20 -25 -11 -3 -20
-13 -20 -23 0 -10 9 -20 20 -23 18 -5 20 -14 20 -91 0 -101 15 -126 75 -126
30 0 35 3 35 24 0 18 -6 25 -22 28 -22 3 -23 8 -23 83 l0 80 28 3 c37 4 33 36
-6 40 -23 3 -27 8 -27 33 0 29 -14 36 -47 22z"/>
<path d="M1055 275 c-5 -2 -23 -6 -38 -9 -19 -5 -27 -12 -25 -23 2 -12 16 -16
58 -17 47 -1 55 -4 58 -21 2 -17 -6 -22 -50 -33 -32 -7 -60 -21 -70 -35 -53
-67 19 -156 94 -116 15 8 26 8 44 -1 44 -24 54 -8 54 80 0 81 -14 135 -41 156
-15 13 -68 25 -84 19z m55 -170 c0 -28 -5 -38 -25 -47 -28 -12 -55 2 -55 30 0
24 31 52 57 52 20 0 23 -5 23 -35z"/>
<path d="M1340 263 c-14 -9 -28 -21 -31 -26 -3 -5 -9 1 -12 12 -3 15 -13 21
-31 21 l-26 0 0 -117 c0 -65 4 -124 9 -131 4 -8 19 -12 32 -10 23 3 24 7 29
93 5 90 5 90 37 105 25 12 33 21 33 43 0 31 -6 33 -40 10z"/>
<path d="M1870 262 c-89 -44 -93 -201 -6 -237 61 -26 136 -16 136 16 0 16 -8
19 -53 19 -41 0 -58 5 -71 19 -32 35 -16 46 65 46 73 0 74 0 77 26 5 46 -23
98 -62 114 -44 19 -44 19 -86 -3z m78 -44 c7 -7 12 -20 12 -30 0 -15 -9 -18
-50 -18 -54 0 -58 4 -34 38 17 24 53 29 72 10z"/>
<path d="M2195 272 c-10 -2 -29 -11 -42 -19 -21 -14 -23 -14 -23 2 0 12 -7 15
-27 13 l-27 -3 3 -120 c1 -66 6 -124 11 -128 4 -5 16 -7 26 -5 17 3 19 15 22
93 2 49 8 95 14 102 6 8 25 13 42 11 l31 -3 3 -95 c2 -52 7 -99 12 -104 5 -5
21 -6 35 -2 l27 7 -4 97 c-2 60 -9 105 -18 119 -16 25 -55 41 -85 35z"/>
<path d="M2610 264 c-112 -46 -94 -232 23 -251 54 -8 109 4 105 25 -2 13 -17
18 -63 22 -51 4 -61 9 -72 29 -18 36 -7 44 53 36 73 -9 94 -1 94 35 0 46 -17
79 -52 100 -39 23 -42 24 -88 4z m68 -46 c7 -7 12 -20 12 -30 0 -15 -9 -18
-50 -18 -43 0 -49 2 -43 18 15 42 54 57 81 30z"/>
<path d="M2920 272 c-8 -2 -25 -14 -37 -25 l-23 -20 0 21 c0 17 -6 22 -25 22
l-26 0 3 -127 3 -128 25 0 c24 0 25 2 30 85 3 47 9 90 13 97 4 6 21 14 37 18
23 5 30 12 30 30 0 27 -8 35 -30 27z"/>
</g>
</svg>
