<svg xmlns="http://www.w3.org/2000/svg" viewBox="0 0 400 500"><defs><radialGradient id="g"><stop stop-color="#bb9bff" stop-opacity=".19"/><stop offset="1" stop-color="#15151e"/></radialGradient></defs><rect width="400" height="500" fill="#15151e"/><rect width="400" height="500" fill="url(#g)"/><path d="M24 20h352v460H24Z" fill="none" stroke="#bb9bff" stroke-opacity=".35"/><g font-family="Arial,sans-serif"><text x="43" y="53" fill="#bb9bff" font-size="12" letter-spacing="2">ZONA DIGITAL / EBOOK / 01</text><g fill="none" stroke="#bb9bff" stroke-width="1.5"><ellipse cx="200" cy="207" rx="35" ry="98" transform="rotate(0 200 207)"/><ellipse cx="200" cy="207" rx="53" ry="98" transform="rotate(24 200 207)"/><ellipse cx="200" cy="207" rx="71" ry="98" transform="rotate(48 200 207)"/><ellipse cx="200" cy="207" rx="89" ry="98" transform="rotate(72 200 207)"/><ellipse cx="200" cy="207" rx="107" ry="98" transform="rotate(96 200 207)"/><ellipse cx="200" cy="207" rx="125" ry="98" transform="rotate(120 200 207)"/></g><circle cx="200" cy="207" r="8" fill="#bb9bff"/><text x="42" y="369" fill="#f8f7fc" font-size="30" font-weight="700" letter-spacing="-1">EBOOKS</text><text x="42" y="406" fill="#f8f7fc" font-size="30" font-weight="700" letter-spacing="-1">DIGITALES</text><path d="M42 430h316" stroke="#bb9bff" stroke-opacity=".4"/><text x="42" y="459" fill="#bb9bff" font-size="11" letter-spacing="2">ILUSTRACIÓN DE FORMATO</text><text x="339" y="460" fill="#bb9bff" font-size="22">↗</text></g></svg>