<svg xmlns="http://www.w3.org/2000/svg" viewBox="0 0 64 64"><circle cx="32" cy="32" r="31" fill="#FCE8EE"/><circle cx="32" cy="32" r="27.5" fill="none" stroke="#D9A55B" stroke-width="2.4"/><g transform="translate(6.5 5) scale(1.28)" fill="none" stroke="#3A2418" stroke-width="1.9" stroke-linejoin="round" stroke-linecap="round"><path d="M20 9c3.6 3.3 4.6 8.4 0 13.6C15.4 17.4 16.4 12.3 20 9Z"/><path d="M19.2 22.4c-3.6-1-7.8-4.6-7.7-9.6 3.8.4 6.5 2.4 7.8 5"/><path d="M20.8 22.4c3.6-1 7.8-4.6 7.7-9.6-3.8.4-6.5 2.4-7.8 5"/><path d="M18.6 22.6C14 23 9.2 20.8 7.6 17.2c3-.8 6.2-.2 8.6 1.6"/><path d="M21.4 22.6c4.6.4 9.4-1.8 11-5.4-3-.8-6.2-.2-8.6 1.6"/><path d="M11 25.6h18"/><path d="M20 28.6l-1.6-1.4a1 1 0 0 1 1.6-1.2 1 1 0 0 1 1.6 1.2Z" fill="#3A2418"/></g></svg>
