<svg xmlns="http://www.w3.org/2000/svg" viewBox="0 0 64 64" width="64" height="64">
  <rect width="64" height="64" rx="14" fill="#FCEBF3"/>
  <circle cx="32" cy="32" r="22" fill="none" stroke="#E5468A" stroke-width="3"/>
  <circle cx="32" cy="32" r="17.5" fill="none" stroke="#F6B3D0" stroke-width="1.6"/>
  <path d="M32 19 C33.5 27 37 30.5 45 32 C37 33.5 33.5 37 32 45 C30.5 37 27 33.5 19 32 C27 30.5 30.5 27 32 19 Z" fill="#E5468A"/>
  <path d="M45 20 C45.7 23 47 24.3 50 25 C47 25.7 45.7 27 45 30 C44.3 27 43 25.7 40 25 C43 24.3 44.3 23 45 20 Z" fill="#EE7DB0"/>
</svg>
